<svg version="1.1" viewBox="0.0 0.0 100.0 100.0" fill="none" stroke="none" stroke-linecap="square" stroke-miterlimit="10" xmlns:xlink="http://www.w3.org/1999/xlink" xmlns="http://www.w3.org/2000/svg"><clipPath id="p.0"><path d="m0 0l100.0 0l0 100.0l-100.0 0l0 -100.0z" clip-rule="nonzero"/></clipPath><g clip-path="url(#p.0)"><path fill="#000000" fill-opacity="0.0" d="m0 0l100.0 0l0 100.0l-100.0 0z" fill-rule="evenodd"/><path fill="#ffffff" d="m24.677166 31.047253l0 0c0 -2.4613647 1.9953289 -4.4566936 4.4566917 -4.4566936l41.732285 0c1.1819916 0 2.315567 0.46954346 3.1513596 1.305336c0.83579254 0.83579063 1.305336 1.969368 1.305336 3.1513577l0 0l0 0c0 2.4613647 -1.9953308 4.4566917 -4.4566956 4.4566917l-41.732285 0c-2.4613628 0 -4.4566917 -1.995327 -4.4566917 -4.4566917z" fill-rule="evenodd"/><path fill="#ffffff" d="m24.677166 49.99946l0 0c0 -2.461361 1.9953289 -4.4566917 4.4566917 -4.4566917l41.732285 0c1.1819916 0 2.315567 0.46954346 3.1513596 1.305336c0.83579254 0.83579254 1.305336 1.969368 1.305336 3.1513557l0 0l0 0c0 2.4613647 -1.9953308 4.4566956 -4.4566956 4.4566956l-41.732285 0c-2.4613628 0 -4.4566917 -1.9953308 -4.4566917 -4.4566956z" fill-rule="evenodd"/><path fill="#ffffff" d="m24.677166 68.95167l0 0c0 -2.4613647 1.9953289 -4.4566956 4.4566917 -4.4566956l41.732285 0c1.1819916 0 2.315567 0.46954346 3.1513596 1.305336c0.83579254 0.83579254 1.305336 1.969368 1.305336 3.1513596l0 0l0 0c0 2.4613647 -1.9953308 4.4566956 -4.4566956 4.4566956l-41.732285 0c-2.4613628 0 -4.4566917 -1.9953308 -4.4566917 -4.4566956z" fill-rule="evenodd"/></g></svg>